<svg viewBox="0 0 512 512" fill="none" xmlns="http://www.w3.org/2000/svg"><style>.a{fill:#333}@media (prefers-color-scheme:dark){.a{fill:#eee}}</style>
<path d="M31.725 495.5C28.575 495.5 27 494.45 27 492.35C27 490.6 27.35 489.025 28.05 487.625C29.45 485.175 32.6 478 37.5 466.1C42.4 454.55 48.525 439.675 55.875 421.475C62.875 403.625 70.575 384.2 78.975 363.2C87.375 342.55 95.6 322.075 103.65 301.775C111.7 281.125 119.05 262.4 125.7 245.6C119.4 246.65 113.8 247.35 108.9 247.7C104 248.05 100.5 248.225 98.4 248.225C95.25 248.225 92.1 247.175 88.95 245.075C85.8 242.975 84.225 240.175 84.225 236.675C84.225 233.525 86.325 230.9 90.525 228.8C94.725 226.35 99.275 224.6 104.175 223.55C109.425 222.15 113.275 221.45 115.725 221.45C119.575 221.45 122.375 222.85 124.125 225.65C126.225 228.45 128.5 229.85 130.95 229.85H132C135.85 220.05 139 212 141.45 205.7C144.25 199.05 146 194.325 146.7 191.525C149.5 184.175 153.35 174.725 158.25 163.175C163.15 151.625 168.575 139.375 174.525 126.425C180.475 113.125 186.6 100.35 192.9 88.1C199.55 75.5 205.675 64.65 211.275 55.55C216.525 47.5 222.65 39.45 229.65 31.4C237 23 244.875 16.175 253.275 10.925C262.025 5.32499 271.3 2.52498 281.1 2.52498C285.3 2.52498 289.325 3.04998 293.175 4.09999C297.025 4.79998 300.7 6.02498 304.2 7.77498C314.7 13.725 319.95 22.3 319.95 33.5C319.95 38.05 319.075 43.125 317.325 48.725C315.925 53.975 313.825 59.575 311.025 65.525C306.475 75.675 298.95 87.75 288.45 101.75C278.3 115.75 266.4 130.275 252.75 145.325C239.45 160.375 225.625 174.9 211.275 188.9C196.925 202.9 183.1 215.15 169.8 225.65C178.9 224.95 188.175 224.25 197.625 223.55C207.075 222.5 216.525 221.975 225.975 221.975C228.425 221.975 230.875 222.325 233.325 223.025C236.125 223.375 237.525 224.075 237.525 225.125C237.525 225.825 236.65 226.7 234.9 227.75C233.5 228.45 230.525 229.5 225.975 230.9C223.175 231.6 217.575 232.825 209.175 234.575C200.775 235.975 190.975 237.375 179.775 238.775C168.925 240.175 158.075 241.575 147.225 242.975C142.325 255.575 136.55 270.625 129.9 288.125C123.6 305.275 117.125 322.6 110.475 340.1C104.175 357.95 98.4 373.875 93.15 387.875C88.95 400.125 86.325 409.05 85.275 414.65C84.225 420.25 83.7 424.45 83.7 427.25V430.925C83.7 432.325 83.525 433.725 83.175 435.125C83.175 436.525 82.65 438.45 81.6 440.9C75.3 457 71.1 467.85 69 473.45C66.9 479.4 63.925 483.6 60.075 486.05C57.275 487.45 52.9 489.375 46.95 491.825C41 494.275 35.925 495.5 31.725 495.5ZM154.575 226.7C167.525 216.9 180.825 205 194.475 191C208.125 177 221.425 162.125 234.375 146.375C247.325 130.275 259.05 114.525 269.55 99.125C280.4 83.725 289.325 70.075 296.325 58.175C302.275 48.375 305.25 39.1 305.25 30.35C305.25 20.9 301.925 16.175 295.275 16.175C289.675 16.175 283.025 19.325 275.325 25.625C268.675 30.525 260.625 38.75 251.175 50.3C242.075 61.5 232.975 74.1 223.875 88.1C215.125 101.75 207.425 114.7 200.775 126.95C193.075 141.65 186.075 155.825 179.775 169.475C173.475 182.775 168.4 193.975 164.55 203.075C160.7 211.825 158.425 217.075 157.725 218.825C156.675 220.925 155.625 223.55 154.575 226.7ZM217.657 509.675C213.457 508.625 209.782 507.575 206.632 506.525C199.982 503.025 195.257 499 192.457 494.45C189.657 490.25 188.257 485.7 188.257 480.8C188.257 472.75 191.057 464 196.657 454.55C201.907 445.45 208.907 436 217.657 426.2C226.407 415.7 237.432 405.025 250.732 394.175C264.382 383.325 278.557 372.825 293.257 362.675C307.957 352.875 320.907 344.3 332.107 336.95C344.357 312.1 355.207 288.65 364.657 266.6C374.107 244.2 380.757 227.05 384.607 215.15C377.257 223.2 369.382 232.3 360.982 242.45C352.582 252.25 346.457 259.425 342.607 263.975C335.957 270.975 328.432 278.675 320.032 287.075C311.632 295.125 302.707 302.125 293.257 308.075C284.157 313.675 275.232 316.475 266.482 316.475C260.882 316.475 254.932 314.9 248.632 311.75C242.332 308.25 237.257 303.875 233.407 298.625C228.157 291.625 225.532 284.45 225.532 277.1C225.532 267.65 228.682 257.85 234.982 247.7C241.632 237.55 250.032 227.75 260.182 218.3C270.682 208.5 281.707 199.75 293.257 192.05C305.157 184 316.357 177.35 326.857 172.1C337.707 166.5 346.457 162.825 353.107 161.075C359.407 158.975 367.107 157.925 376.207 157.925C380.407 157.925 385.482 158.625 391.432 160.025C397.382 161.425 402.632 163.7 407.182 166.85C412.082 169.65 414.532 173.85 414.532 179.45C414.532 182.25 413.132 183.125 410.332 182.075C407.882 177.875 404.207 175.25 399.307 174.2C394.757 172.8 390.032 172.1 385.132 172.1C371.482 172.1 356.082 176.65 338.932 185.75C322.132 194.85 307.082 205.525 293.782 217.775C289.582 221.275 283.807 227.4 276.457 236.15C269.107 244.55 262.457 253.825 256.507 263.975C250.907 274.125 248.107 283.4 248.107 291.8C248.107 296.35 249.332 300.375 251.782 303.875C252.832 305.625 254.932 306.5 258.082 306.5C264.732 306.5 272.782 303.525 282.232 297.575C292.032 291.625 302.357 284.1 313.207 275C324.057 265.9 334.557 256.275 344.707 246.125C355.207 235.625 364.482 226 372.532 217.25C380.582 208.5 386.532 201.85 390.382 197.3C391.082 195.55 392.307 194.325 394.057 193.625C395.807 192.925 397.732 192.575 399.832 192.575C405.432 192.575 411.207 194.15 417.157 197.3C423.457 200.1 426.082 202.55 425.032 204.65C418.382 219 410.507 235.625 401.407 254.525C392.657 273.425 383.382 293.2 373.582 313.85C378.132 311.4 385.657 305.975 396.157 297.575C406.657 289.175 418.207 279.2 430.807 267.65C443.407 255.75 455.132 243.5 465.982 230.9C470.182 226.35 473.332 224.075 475.432 224.075C477.532 224.075 478.057 226 477.007 229.85C475.957 233.35 473.157 237.9 468.607 243.5C463.007 250.15 455.307 258.2 445.507 267.65C435.707 276.75 425.382 286.2 414.532 296C403.682 305.45 393.532 313.85 384.082 321.2C374.982 328.9 367.807 334.15 362.557 336.95C351.707 360.05 341.207 381.75 331.057 402.05C320.907 422.7 311.632 439.325 303.232 451.925C297.632 460.675 290.807 469.6 282.757 478.7C274.707 487.8 265.957 495.325 256.507 501.275C247.057 507.575 237.082 510.725 226.582 510.725C225.182 510.725 223.782 510.55 222.382 510.2C220.982 510.2 219.407 510.025 217.657 509.675ZM212.407 496.025C214.507 497.425 217.482 497.425 221.332 496.025C225.532 494.625 230.782 491.475 237.082 486.575C250.732 475.725 262.457 462.95 272.257 448.25C282.057 433.9 290.982 418.675 299.032 402.575C307.082 386.825 314.782 371.6 322.132 356.9C308.482 367.05 293.082 378.95 275.932 392.6C258.782 406.6 243.207 420.425 229.207 434.075C222.207 441.075 216.432 448.775 211.882 457.175C206.982 465.925 204.532 473.8 204.532 480.8C204.532 488.15 207.157 493.225 212.407 496.025Z" class='a'/>
</svg>
